<?xml version="1.0" encoding="UTF-8"?>
<svg xmlns="http://www.w3.org/2000/svg" xmlns:xlink="http://www.w3.org/1999/xlink" width="816px" height="600px" viewBox="0 0 816 600" version="1.1">
<path style=" stroke:none;fill-rule:nonzero;fill:rgb(92.54902%,44.705882%,6.27451%);fill-opacity:1;" d="M 458.730469 276.0625 L 431.9375 249.269531 L 429.941406 254.058594 L 453.941406 278.058594 Z M 458.730469 276.0625 "/>
<path style=" stroke:none;fill-rule:nonzero;fill:rgb(92.54902%,44.705882%,6.27451%);fill-opacity:1;" d="M 424.96875 252 L 426.945312 247.199219 L 389.054688 247.199219 L 391.03125 252 Z M 424.96875 252 "/>
<path style=" stroke:none;fill-rule:nonzero;fill:rgb(92.54902%,44.705882%,6.27451%);fill-opacity:1;" d="M 391.03125 348 L 389.054688 352.800781 L 426.945312 352.800781 L 424.96875 348 Z M 391.03125 348 "/>
<path style=" stroke:none;fill-rule:nonzero;fill:rgb(92.54902%,44.705882%,6.27451%);fill-opacity:1;" d="M 451.199219 282.105469 L 425.894531 256.800781 L 390.105469 256.800781 L 364.800781 282.105469 L 364.800781 317.894531 L 390.105469 343.199219 L 425.894531 343.199219 L 451.199219 317.894531 Z M 408 341.128906 C 385.320312 341.128906 366.871094 322.679688 366.871094 300 C 366.871094 277.320312 385.320312 258.871094 408 258.871094 C 430.679688 258.871094 449.128906 277.320312 449.128906 300 C 449.128906 322.679688 430.679688 341.128906 408 341.128906 Z M 408 341.128906 "/>
<path style=" stroke:none;fill-rule:nonzero;fill:rgb(92.54902%,44.705882%,6.27451%);fill-opacity:1;" d="M 355.199219 318.945312 L 360 316.96875 L 360 283.03125 L 355.199219 281.054688 Z M 355.199219 318.945312 "/>
<path style=" stroke:none;fill-rule:nonzero;fill:rgb(92.54902%,44.705882%,6.27451%);fill-opacity:1;" d="M 357.269531 276.0625 L 362.058594 278.058594 L 386.058594 254.058594 L 384.0625 249.269531 Z M 357.269531 276.0625 "/>
<path style=" stroke:none;fill-rule:nonzero;fill:rgb(92.54902%,44.705882%,6.27451%);fill-opacity:1;" d="M 408 316.144531 C 405.878906 316.144531 404.152344 317.867188 404.152344 319.988281 C 404.152344 322.109375 405.878906 323.835938 408 323.835938 C 410.121094 323.835938 411.847656 322.109375 411.847656 319.988281 C 411.847656 317.867188 410.121094 316.144531 408 316.144531 Z M 408 316.144531 "/>
<path style=" stroke:none;fill-rule:nonzero;fill:rgb(92.54902%,44.705882%,6.27451%);fill-opacity:1;" d="M 448.726562 259.269531 L 463.523438 274.066406 L 468.316406 272.070312 L 435.929688 239.683594 L 433.933594 244.476562 Z M 448.726562 259.269531 "/>
<path style=" stroke:none;fill-rule:nonzero;fill:rgb(92.54902%,44.705882%,6.27451%);fill-opacity:1;" d="M 473.109375 270.074219 L 477.898438 268.074219 L 439.925781 230.101562 L 437.925781 234.890625 Z M 473.109375 270.074219 "/>
<path style=" stroke:none;fill-rule:nonzero;fill:rgb(92.54902%,44.705882%,6.27451%);fill-opacity:1;" d="M 426.046875 268.476562 C 426.566406 269.25 427.023438 270.066406 427.441406 270.90625 C 427.546875 271.113281 427.644531 271.320312 427.742188 271.527344 C 428.535156 273.234375 429.105469 275.058594 429.433594 276.96875 C 429.472656 277.207031 429.507812 277.445312 429.542969 277.6875 C 429.675781 278.652344 429.765625 279.632812 429.765625 280.636719 C 429.765625 292.636719 420.003906 302.398438 408 302.398438 C 398.644531 302.398438 391.035156 310.011719 391.035156 319.367188 C 391.035156 328.71875 398.644531 336.332031 408 336.332031 C 428.03125 336.332031 444.332031 320.035156 444.332031 300 C 444.332031 286.53125 436.960938 274.75 426.046875 268.476562 Z M 408 328.636719 C 403.234375 328.636719 399.355469 324.757812 399.355469 319.988281 C 399.355469 315.222656 403.234375 311.34375 408 311.34375 C 412.765625 311.34375 416.644531 315.222656 416.644531 319.988281 C 416.644531 324.757812 412.765625 328.636719 408 328.636719 Z M 408 328.636719 "/>
<path style=" stroke:none;fill-rule:nonzero;fill:rgb(92.54902%,44.705882%,6.27451%);fill-opacity:1;" d="M 465.601562 320.921875 L 470.398438 322.898438 L 470.398438 277.101562 L 465.601562 279.078125 Z M 465.601562 320.921875 "/>
<path style=" stroke:none;fill-rule:nonzero;fill:rgb(92.54902%,44.705882%,6.27451%);fill-opacity:1;" d="M 408 283.855469 C 410.121094 283.855469 411.847656 282.132812 411.847656 280.011719 C 411.847656 277.890625 410.121094 276.164062 408 276.164062 C 405.878906 276.164062 404.152344 277.890625 404.152344 280.011719 C 404.152344 282.132812 405.878906 283.855469 408 283.855469 Z M 408 283.855469 "/>
<path style=" stroke:none;fill-rule:nonzero;fill:rgb(92.54902%,44.705882%,6.27451%);fill-opacity:1;" d="M 386.058594 345.941406 L 362.058594 321.941406 L 357.269531 323.9375 L 384.0625 350.730469 Z M 386.058594 345.941406 "/>
<path style=" stroke:none;fill-rule:nonzero;fill:rgb(92.54902%,44.705882%,6.27451%);fill-opacity:1;" d="M 388.257812 328.472656 C 387.464844 326.765625 386.894531 324.941406 386.566406 323.03125 C 386.527344 322.792969 386.492188 322.554688 386.457031 322.316406 C 386.324219 321.347656 386.234375 320.367188 386.234375 319.367188 C 386.234375 307.363281 395.996094 297.601562 408 297.601562 C 417.355469 297.601562 424.964844 289.988281 424.964844 280.632812 C 424.964844 271.28125 417.355469 263.667969 408 263.667969 C 387.96875 263.667969 371.667969 279.964844 371.667969 300 C 371.667969 313.46875 379.039062 325.25 389.953125 331.523438 C 389.433594 330.75 388.976562 329.929688 388.554688 329.09375 C 388.453125 328.886719 388.355469 328.683594 388.257812 328.472656 Z M 408 271.363281 C 412.765625 271.363281 416.644531 275.242188 416.644531 280.011719 C 416.644531 284.777344 412.765625 288.65625 408 288.65625 C 403.234375 288.65625 399.355469 284.777344 399.355469 280.011719 C 399.355469 275.242188 403.234375 271.363281 408 271.363281 Z M 408 271.363281 "/>
<path style=" stroke:none;fill-rule:nonzero;fill:rgb(92.54902%,44.705882%,6.27451%);fill-opacity:1;" d="M 387.078125 242.398438 L 428.921875 242.398438 L 430.898438 237.601562 L 385.101562 237.601562 Z M 387.078125 242.398438 "/>
<path style=" stroke:none;fill-rule:nonzero;fill:rgb(92.54902%,44.705882%,6.27451%);fill-opacity:1;" d="M 342.890625 329.925781 L 338.101562 331.925781 L 376.074219 369.898438 L 378.074219 365.105469 L 343.179688 330.214844 Z M 342.890625 329.925781 "/>
<path style=" stroke:none;fill-rule:nonzero;fill:rgb(92.54902%,44.705882%,6.27451%);fill-opacity:1;" d="M 463.523438 325.933594 L 433.933594 355.523438 L 435.929688 360.316406 L 468.316406 327.929688 Z M 463.523438 325.933594 "/>
<path style=" stroke:none;fill-rule:nonzero;fill:rgb(92.54902%,44.705882%,6.27451%);fill-opacity:1;" d="M 340.800781 275.125 L 336 273.148438 L 336 326.851562 L 340.800781 324.875 Z M 340.800781 275.125 "/>
<path style=" stroke:none;fill-rule:nonzero;fill:rgb(92.54902%,44.705882%,6.27451%);fill-opacity:1;" d="M 383.125 367.199219 L 381.148438 372 L 434.851562 372 L 432.875 367.199219 Z M 383.125 367.199219 "/>
<path style=" stroke:none;fill-rule:nonzero;fill:rgb(92.54902%,44.705882%,6.27451%);fill-opacity:1;" d="M 367.273438 340.730469 L 352.476562 325.933594 L 347.683594 327.929688 L 380.070312 360.316406 L 382.066406 355.523438 Z M 367.273438 340.730469 "/>
<path style=" stroke:none;fill-rule:nonzero;fill:rgb(92.54902%,44.705882%,6.27451%);fill-opacity:1;" d="M 475.199219 275.125 L 475.199219 324.875 L 480 326.851562 L 480 273.148438 Z M 475.199219 275.125 "/>
<path style=" stroke:none;fill-rule:nonzero;fill:rgb(92.54902%,44.705882%,6.27451%);fill-opacity:1;" d="M 428.921875 357.601562 L 387.078125 357.601562 L 385.101562 362.398438 L 430.898438 362.398438 Z M 428.921875 357.601562 "/>
<path style=" stroke:none;fill-rule:nonzero;fill:rgb(92.54902%,44.705882%,6.27451%);fill-opacity:1;" d="M 472.820312 330.214844 L 437.925781 365.109375 L 439.925781 369.898438 L 477.898438 331.925781 L 473.105469 329.929688 Z M 472.820312 330.214844 "/>
<path style=" stroke:none;fill-rule:nonzero;fill:rgb(92.54902%,44.705882%,6.27451%);fill-opacity:1;" d="M 460.800781 281.054688 L 456 283.03125 L 456 316.96875 L 460.800781 318.945312 Z M 460.800781 281.054688 "/>
<path style=" stroke:none;fill-rule:nonzero;fill:rgb(92.54902%,44.705882%,6.27451%);fill-opacity:1;" d="M 458.730469 323.9375 L 453.941406 321.941406 L 429.941406 345.941406 L 431.9375 350.730469 Z M 458.730469 323.9375 "/>
<path style=" stroke:none;fill-rule:nonzero;fill:rgb(92.54902%,44.705882%,6.27451%);fill-opacity:1;" d="M 343.179688 269.785156 L 378.074219 234.890625 L 376.074219 230.101562 L 338.101562 268.074219 L 342.894531 270.070312 Z M 343.179688 269.785156 "/>
<path style=" stroke:none;fill-rule:nonzero;fill:rgb(92.54902%,44.705882%,6.27451%);fill-opacity:1;" d="M 432.875 232.800781 L 434.851562 228 L 381.148438 228 L 383.125 232.800781 Z M 432.875 232.800781 "/>
<path style=" stroke:none;fill-rule:nonzero;fill:rgb(92.54902%,44.705882%,6.27451%);fill-opacity:1;" d="M 352.476562 274.066406 L 382.066406 244.476562 L 380.070312 239.683594 L 347.683594 272.070312 Z M 352.476562 274.066406 "/>
<path style=" stroke:none;fill-rule:nonzero;fill:rgb(92.54902%,44.705882%,6.27451%);fill-opacity:1;" d="M 345.601562 322.898438 L 350.398438 320.921875 L 350.398438 279.078125 L 345.601562 277.101562 Z M 345.601562 322.898438 "/>
</g>
</svg>
